<?xml version="1.0" encoding="UTF-8"?>
<svg data-name="Layer 1" version="1.1" viewBox="0 0 128 128" xmlns="http://www.w3.org/2000/svg" >
 <title>email-symbol</title>
 <path d="m107.36 33.425-24.31-25.12v-0.25h-65.56v40.51l34.22 30.6 0.15 0.14 11.55 10.32 46.64-40.7v-10l-2.64-5.49zm-38.24-2.42 0.09-0.41 0.56-2.47h6.83l-3.93 18.54c-0.07 0.33-0.14 0.63-0.19 0.9a9.34 9.34 0 0 0-0.18 1.42 1.43 1.43 0 0 0 0.29 0.94 1 1 0 0 0 0.72 0.33c0.93 0 2.14-0.61 3.61-1.82a16.05 16.05 0 0 0 3.85-5 15.19 15.19 0 0 0 0.47-12.71 13.86 13.86 0 0 0-3.4-4.76 16 16 0 0 0-5.5-3.15 22.48 22.48 0 0 0-7.41-1.14 25.87 25.87 0 0 0-7.73 1.11 19.49 19.49 0 0 0-6.15 3.19 17.46 17.46 0 0 0-4.45 5.08 22.14 22.14 0 0 0-2.4 5.84 25.72 25.72 0 0 0-0.83 6.54 18.36 18.36 0 0 0 1.75 8.13 16.3 16.3 0 0 0 5.14 6.18 21 21 0 0 0 8.16 3.55 34.53 34.53 0 0 0 10.8 0.42 25.52 25.52 0 0 0 8.1-2.15 15.69 15.69 0 0 0 5.63-4.5h5.51a18.14 18.14 0 0 1-3.5 5 20.31 20.31 0 0 1-5.06 3.66 26.25 26.25 0 0 1-6.49 2.26 36.89 36.89 0 0 1-7.84 0.77 36.4 36.4 0 0 1-11.44-1.67 23.41 23.41 0 0 1-8.58-4.81 20.32 20.32 0 0 1-5.27-7.5 25.24 25.24 0 0 1-1.77-9.62 28.31 28.31 0 0 1 1.84-10.37 23.54 23.54 0 0 1 13.7-13.83 29.27 29.27 0 0 1 11-2 27 27 0 0 1 9 1.44 19.93 19.93 0 0 1 7 4.17 18.12 18.12 0 0 1 4.47 6.38 21 21 0 0 1 1.53 8.08 19.13 19.13 0 0 1-1.24 6.78 19.37 19.37 0 0 1-3.56 6 17.25 17.25 0 0 1-5.44 4.19 15.06 15.06 0 0 1-6.76 1.57 6.17 6.17 0 0 1-3.25-0.72 3.48 3.48 0 0 1-1.53-2.28 12 12 0 0 1-1.22 1 10.61 10.61 0 0 1-1.06 0.68 9.49 9.49 0 0 1-2.89 1.07 9.65 9.65 0 0 1-5.67-0.55 9.38 9.38 0 0 1-4.38-3.76 12 12 0 0 1-1.69-6.56 19.55 19.55 0 0 1 1.74-8 16.59 16.59 0 0 1 5-6.44 11.56 11.56 0 0 1 7.29-2.51 7.46 7.46 0 0 1 6.66 3.32l0.12 0.19zm-14.14 13.39a7.62 7.62 0 0 0 1.29 4.76 4.1 4.1 0 0 0 3.38 1.66 5.75 5.75 0 0 0 4.28-2 10 10 0 0 0 1-1.23 10.61 10.61 0 0 0 0.6-0.93 13.67 13.67 0 0 0 1.2-2.74 18.71 18.71 0 0 0 1-5.66v-0.07a10.84 10.84 0 0 0-0.06-1.16 7.48 7.48 0 0 0-0.26-1.3 5.92 5.92 0 0 0-1-1.93 4.18 4.18 0 0 0-1.52-1.23 4.76 4.76 0 0 0-2-0.42 5.74 5.74 0 0 0-4.1 1.78 11.34 11.34 0 0 0-2.78 4.54 17.92 17.92 0 0 0-1 5.86zm60.51-0.26a3.59 3.59 0 0 1 2.43-0.93 4 4 0 0 1 2.06 0.6 5.09 5.09 0 0 1 1.26 1.07 7.06 7.06 0 0 1 1.69 4.26v70.64a5.71 5.71 0 0 1-1.66 4 5.67 5.67 0 0 1-4 1.66h-106.55a5.71 5.71 0 0 1-4-1.66 5.62 5.62 0 0 1-1.66-4v-70.64a7.1 7.1 0 0 1 1.73-4.32 5.5 5.5 0 0 1 1.26-1 4 4 0 0 1 2-0.58 3.59 3.59 0 0 1 2 0.57v-38.5a2.74 2.74 0 0 1 2.7-2.74h69.2a2.71 2.71 0 0 1 2.1 1l28.65 29.59a2.71 2.71 0 0 1 0.78 1.9v0.79 0.34 0.33 7.63zm-53.92 51.17-11.62-10.38-39.41 34.54v0.31a0.17 0.17 0 0 0 0 0.13 0.22 0.22 0 0 0 0.13 0h106.59a0.22 0.22 0 0 0 0.13 0 0.17 0.17 0 0 0 0-0.13v-0.21l-39.89-35-12.3 10.76a2.73 2.73 0 0 1-3.62 0zm-15.73-14-35.3-31.59v62.48l35.3-30.94zm71.6 31.06v-62.68l-35.79 31.27 35.79 31.36z" fill="#fff" />
</svg>
