<svg xmlns="http://www.w3.org/2000/svg" viewBox="0 0 487.31 487.67">
    <defs>
        <linearGradient id="Gradient">
            <stop offset="0%" stop-color="rgba(120, 49, 146, 1)" />
            <stop offset="100%" stop-color="rgba(89, 188, 200, 1)" />
        </linearGradient>
    </defs>
    <path fill="url(#Gradient)" d="M288.26,9A247.19,247.19,0,0,1,415.69,71.56c-23.78,41.24-85.42,144.93-86.64,146.05-.54.1-28.42-46.28-62-103.33C215.82,27.64,206.24,10.64,207.86,10.1c1-.32,6.89-1.29,13.13-2C238.7,4.76,265.32,6.22,288.26,9ZM215.93,87.59c22.28,37.89,40.58,69.31,40.58,70,4.71,1.79-194.9,1-231.62,1.18C45.29,97.25,113,37.32,174.71,18.93,175,18.82,193.54,49.82,215.93,87.59ZM443,102.45c47.08,61.33,61.52,135.71,42.52,208h-175C333.22,271.9,431.13,105,437.43,96.31,437.86,96.31,440.44,99.11,443,102.45Zm-253.57,88C187.3,194.35,69.87,394.85,63.21,405.2,13.63,343.56-6.34,268.92,14.56,188.87,39.14,189.18,203.43,187.87,189.45,190.48Zm45.21,194.06c39.82,67.48,61,104.29,60.27,104.83C227.07,504.9,134.14,478.85,85.27,428c15.62-26.55,83-141.55,87.29-147.56C172.88,280.46,200.75,327.28,234.66,384.54ZM475,342.89c-22.4,60.4-87.28,120.36-148.64,136.79.44,1.7-81.05-137.29-80.39-135.61l-1.51-2.37C280.39,341.86,481.76,341.1,475,342.89Z" transform="translate(-6.35 -6.17)" />
</svg>