<svg version="1" xmlns="http://www.w3.org/2000/svg" width="668" height="668" viewBox="0 0 501.000000 501.000000"><path d="M247.8 6.5c-.1.1-5.7.5-12.3.8-6.6.4-12.9.8-14 1-2.4.6-11.5 1.9-13.2 2-1.7.1-.5 2.4 15.2 30.2 5 9 50.1 85.7 56 95.5 3.2 5.2 6.6 10.8 7.5 12.5 4.1 7.2 38.5 64.3 40.2 66.8 1.6 2.2 2.3 2.5 3.4 1.6.8-.6 1.4-1.5 1.4-1.9 0-.5 2.2-4.4 4.8-8.7 8.3-13.2 69.1-116.1 76.1-128.5l3.2-5.7-2.8-2.6c-1.5-1.5-6.6-5.6-11.3-9.3-4.7-3.7-8.7-6.9-9-7.2-1.7-2-22.4-14.4-32.5-19.6-23.5-12-53.4-21.7-74-24-2.7-.3-6.1-.8-7.5-1-1.4-.3-8.3-.7-15.5-1-7.1-.3-13.5-.7-14.2-.9-.6-.2-1.3-.2-1.5 0zM170.5 20.7c-1.1.3-3.1 1-4.5 1.6-1.4.5-3.1 1.1-3.8 1.3-2.8.5-28.8 13.6-36.1 18.1C107.7 53.1 93.7 64.3 76.9 81c-17.6 17.5-29.4 32.6-39.4 50.5-4.6 8.2-12.6 26.5-12.1 27.4.5.8 230.4.7 231.2-.2.3-.3-1.2-3.6-3.4-7.4-2.2-3.7-4.9-8.4-6-10.3-6-10.7-27.6-47.4-50.5-85.8-14.3-24-21.5-35.2-22.6-35.1-.9.1-2.5.4-3.6.6zM417.1 130.4c-11 18.4-21 35.4-22.4 37.8-1.3 2.4-5.1 8.8-8.4 14.3-5.5 9.2-23.9 40.5-60.7 102.9-8 13.6-14.6 25-14.6 25.2 0 .2 39.4.4 87.5.4h87.4l1.2-4.2c1.4-5.2 1.3-4.9 4.1-21.1 1.8-10.7 2.2-17.2 2.2-34.2.1-21.8-.3-28.1-2.9-43.1-5.4-30.8-18.2-62.9-35.8-89.4-7.9-12-15.6-22-16.8-22-.5 0-9.8 15-20.8 33.4zM13.6 194.4c-1.5 5.4-3.5 15.7-5 25.6-2 13.8-2.6 39.5-1.2 52.7 3.9 36.6 13 64.7 32.1 98.8 6.7 11.9 23.4 35 24.5 33.8.6-.7 11.3-18.6 25.4-42.8 2.6-4.4 5.3-8.9 5.9-10 .7-1 2.2-3.5 3.3-5.5 2.4-3.9 52.5-89.5 55.4-94.5 1-1.7 9.4-16.1 18.8-32 10.7-18.2 16.6-29.4 16.1-30-.6-.6-32.3-1-87.4-1.1H15l-1.4 5zM170.8 283.8c-3 5-13.4 22.5-31.8 53.7-10.1 17-19 32.2-19.9 33.7-1.5 2.5-10.5 17.9-16 27.2-1.3 2.3-4.2 7.2-6.6 11.1-2.3 3.8-5.7 9.8-7.6 13.3l-3.4 6.3 5.4 5.1c21.2 19.6 47.9 35 80.6 46.5 6.2 2.2 22.6 6.8 28 7.9 21 4.3 35.5 5.8 54 5.8 12.1 0 22.8-.8 32-2.4 3.3-.5 6.2-1 6.5-1 .3 0 1.1-.4 1.8-.9 1.4-.9-.8-5.9-7.7-17.6-1.7-2.8-3.6-6.1-4.3-7.5-4.8-8.7-62.5-106.8-76.7-130.3-3.7-6.2-7-11.7-7.2-12.3-.8-1.9-23.2-38.9-24.3-40.1-.8-.9-1.5-.6-2.8 1.5zM245 342.6c0 .3 2.7 4.9 6 10.4 3.3 5.4 6.8 11.3 7.8 13.2 2 3.4 12.9 21.9 47.1 79.8 10.6 17.9 19.6 32.9 20.2 33.4.5.6 3.6.2 8.1-1.3 9.5-2.9 9.1-2.7 24.8-10.4 46.8-22.9 89.3-65.6 111.1-111.7 6.5-13.7 6.7-13-3.7-13.2-22.7-.3-221.4-.5-221.4-.2z"/></svg>